<?xml version="1.0" ?><!DOCTYPE svg  PUBLIC '-//W3C//DTD SVG 1.1//EN'  'http://www.w3.org/Graphics/SVG/1.1/DTD/svg11.dtd'><svg enable-background="new 0 0 24 24" height="24px" id="Layer_1" version="1.1" viewBox="0 0 24 24" width="24px" xml:space="preserve" xmlns="http://www.w3.org/2000/svg" xmlns:xlink="http://www.w3.org/1999/xlink"><g><path d="M23,10h-1.7l-7.4-7.4C14,2.4,14,2.2,14,2c0-1.1-0.9-2-2-2s-2,0.9-2,2c0,0.2,0,0.5,0.1,0.7L2.8,10H1c-0.6,0-1,0.4-1,1v12   c0,0.6,0.4,1,1,1h22c0.6,0,1-0.4,1-1V11C24,10.4,23.6,10,23,10z M12,1c0.6,0,1,0.4,1,1s-0.4,1-1,1s-1-0.4-1-1S11.4,1,12,1z    M10.7,3.5C11,3.8,11.5,4,12,4c0.5,0,1-0.2,1.4-0.5l6.5,6.5H4.2L10.7,3.5z M22,22H2V12h20V22z"/><path d="M5,20c1.1,0,2-0.9,2-2v-2c0-1.1-0.9-2-2-2s-2,0.9-2,2v2C3,19.1,3.9,20,5,20z M4,16c0-0.6,0.4-1,1-1s1,0.4,1,1v2   c0,0.6-0.4,1-1,1s-1-0.4-1-1V16z"/><polygon points="16,20 16,19 14,19 14,18 16,18 16,17 14,17 14,15 16,15 16,14 13,14 13,15 13,20 14,20  "/><polygon points="18,16 20,20 21,20 21,14 20,14 20,18 18,14 17,14 17,20 18,20  "/><path d="M9,18h1c1.1,0,2-0.9,2-2s-0.9-2-2-2H9H8v6h1V18z M9,15h1c0.6,0,1,0.4,1,1s-0.4,1-1,1H9V15z"/></g></svg>